<svg width="16" height="11" viewBox="0 0 16 11" fill="none" xmlns="http://www.w3.org/2000/svg">
<path d="M0.75 0.5C0.551088 0.5 0.360322 0.579018 0.21967 0.71967C0.0790175 0.860322 0 1.05109 0 1.25C0 1.44891 0.0790175 1.63968 0.21967 1.78033C0.360322 1.92098 0.551088 2 0.75 2H15.25C15.4489 2 15.6397 1.92098 15.7803 1.78033C15.921 1.63968 16 1.44891 16 1.25C16 1.05109 15.921 0.860322 15.7803 0.71967C15.6397 0.579018 15.4489 0.5 15.25 0.5H0.75ZM0.75 3.5C0.551088 3.5 0.360322 3.57902 0.21967 3.71967C0.0790175 3.86032 0 4.05109 0 4.25C0 4.44891 0.0790175 4.63968 0.21967 4.78033C0.360322 4.92098 0.551088 5 0.75 5H15.25C15.4489 5 15.6397 4.92098 15.7803 4.78033C15.921 4.63968 16 4.44891 16 4.25C16 4.05109 15.921 3.86032 15.7803 3.71967C15.6397 3.57902 15.4489 3.5 15.25 3.5H0.75ZM0 7.25C0 7.05109 0.0790175 6.86032 0.21967 6.71967C0.360322 6.57902 0.551088 6.5 0.75 6.5H15.25C15.4489 6.5 15.6397 6.57902 15.7803 6.71967C15.921 6.86032 16 7.05109 16 7.25C16 7.44891 15.921 7.63968 15.7803 7.78033C15.6397 7.92098 15.4489 8 15.25 8H0.75C0.551088 8 0.360322 7.92098 0.21967 7.78033C0.0790175 7.63968 0 7.44891 0 7.25ZM0.75 9.5C0.551088 9.5 0.360322 9.57902 0.21967 9.71967C0.0790175 9.86032 0 10.0511 0 10.25C0 10.4489 0.0790175 10.6397 0.21967 10.7803C0.360322 10.921 0.551088 11 0.75 11H10.25C10.4489 11 10.6397 10.921 10.7803 10.7803C10.921 10.6397 11 10.4489 11 10.25C11 10.0511 10.921 9.86032 10.7803 9.71967C10.6397 9.57902 10.4489 9.5 10.25 9.5H0.75Z" fill="black"/>
</svg>
