<svg width="14" height="18" viewBox="0 0 14 18" fill="none" xmlns="http://www.w3.org/2000/svg">
<path d="M4 18C2.9 18 1.95833 17.6083 1.175 16.825C0.391667 16.0417 0 15.1 0 14V5C0 3.61667 0.487666 2.43733 1.463 1.462C2.43833 0.486667 3.61733 -0.000665984 5 6.8306e-07H9C10.3833 6.8306e-07 11.5627 0.487667 12.538 1.463C13.5133 2.43833 14.0007 3.61733 14 5V14C14 15.1 13.6083 16.0417 12.825 16.825C12.0417 17.6083 11.1 18 10 18H4ZM4 16H10C10.55 16 11.021 15.804 11.413 15.412C11.805 15.02 12.0007 14.5493 12 14V5C12 4.16667 11.7083 3.45833 11.125 2.875C10.5417 2.29167 9.83333 2 9 2H5C4.16667 2 3.45833 2.29167 2.875 2.875C2.29167 3.45833 2 4.16667 2 5V14C2 14.55 2.196 15.021 2.588 15.413C2.98 15.805 3.45067 16.0007 4 16ZM4 10C4.28333 10 4.521 9.904 4.713 9.712C4.905 9.52 5.00067 9.28267 5 9C5 8.71667 4.904 8.479 4.712 8.287C4.52 8.095 4.28267 7.99933 4 8C3.71667 8 3.479 8.096 3.287 8.288C3.095 8.48 2.99933 8.71733 3 9C3 9.28333 3.096 9.521 3.288 9.713C3.48 9.905 3.71733 10.0007 4 10ZM7 10C7.28333 10 7.521 9.904 7.713 9.712C7.905 9.52 8.00067 9.28267 8 9C8 8.71667 7.904 8.479 7.712 8.287C7.52 8.095 7.28267 7.99933 7 8C6.71667 8 6.479 8.096 6.287 8.288C6.095 8.48 5.99933 8.71733 6 9C6 9.28333 6.096 9.521 6.288 9.713C6.48 9.905 6.71733 10.0007 7 10ZM10 10C10.2833 10 10.521 9.904 10.713 9.712C10.905 9.52 11.0007 9.28267 11 9C11 8.71667 10.904 8.479 10.712 8.287C10.52 8.095 10.2827 7.99933 10 8C9.71667 8 9.479 8.096 9.287 8.288C9.095 8.48 8.99933 8.71733 9 9C9 9.28333 9.096 9.521 9.288 9.713C9.48 9.905 9.71733 10.0007 10 10Z" fill="black"/>
</svg>
