<svg width="23" height="13" viewBox="0 0 23 13" fill="none" xmlns="http://www.w3.org/2000/svg">
<path d="M20.5901 5.00009H12.6501C12.1665 3.63063 11.203 2.48286 9.93795 1.76944C8.67292 1.05603 7.19218 0.825327 5.77008 1.12009C3.48008 1.58009 1.62008 3.42009 1.14008 5.70009C0.945784 6.57727 0.950891 7.48687 1.15503 8.36181C1.35916 9.23675 1.75712 10.0547 2.31953 10.7553C2.88195 11.4559 3.59449 12.0214 4.40458 12.4099C5.21467 12.7984 6.10164 13.0001 7.00008 13.0001C8.24002 13.0001 9.44943 12.6154 10.4614 11.8989C11.4734 11.1825 12.2381 10.1696 12.6501 9.00009H13.0001L14.2901 10.2901C14.6801 10.6801 15.3101 10.6801 15.7001 10.2901L17.0001 9.00009L18.2901 10.2901C18.6801 10.6801 19.3201 10.6801 19.7101 10.2901L22.3001 7.68009C22.3933 7.58654 22.467 7.47543 22.517 7.35321C22.567 7.23098 22.5922 7.10005 22.5913 6.968C22.5904 6.83595 22.5633 6.7054 22.5116 6.58389C22.4599 6.46238 22.3846 6.35232 22.2901 6.26009L21.3001 5.29009C21.1001 5.10009 20.8501 5.00009 20.5901 5.00009ZM7.00008 10.0001C5.35008 10.0001 4.00008 8.65009 4.00008 7.00009C4.00008 5.35009 5.35008 4.00009 7.00008 4.00009C8.65008 4.00009 10.0001 5.35009 10.0001 7.00009C10.0001 8.65009 8.65008 10.0001 7.00008 10.0001Z" fill="black"/>
</svg>
