<?xml version="1.0" standalone="no"?>
<!DOCTYPE svg PUBLIC "-//W3C//DTD SVG 20010904//EN"
 "http://www.w3.org/TR/2001/REC-SVG-20010904/DTD/svg10.dtd">
<svg version="1.0" xmlns="http://www.w3.org/2000/svg"
 width="3000.000000pt" height="3000.000000pt" viewBox="0 0 3000.000000 3000.000000"
 preserveAspectRatio="xMidYMid meet">

<g transform="translate(0.000000,3000.000000) scale(0.100000,-0.100000)"
fill="#000000" stroke="none">
<path d="M5460 17943 c-8 -2 -29 -11 -47 -19 -17 -8 -38 -14 -47 -14 -8 0 -42
-18 -75 -41 -64 -44 -141 -147 -141 -191 0 -12 -7 -32 -15 -42 -13 -17 -15
-249 -15 -1790 0 -1551 2 -1775 15 -1800 8 -15 15 -38 15 -51 0 -12 9 -34 20
-48 11 -14 20 -30 20 -35 0 -15 87 -100 109 -107 10 -3 25 -12 31 -20 7 -8 22
-15 34 -15 11 0 35 -8 51 -18 28 -16 131 -17 1715 -17 1584 0 1687 1 1715 17
17 10 40 18 51 18 12 0 33 9 47 20 14 11 28 20 32 20 13 0 95 89 95 102 0 8 9
21 20 31 11 9 20 29 20 44 1 16 7 39 15 53 22 38 22 3566 0 3594 -8 11 -15 33
-15 49 0 41 -107 187 -138 187 -5 0 -17 9 -27 20 -10 11 -30 20 -44 20 -14 0
-39 8 -56 18 -28 16 -132 17 -1700 19 -918 1 -1677 -1 -1685 -4z m2630 -702
c0 -5 11 -19 25 -32 21 -21 25 -33 25 -91 0 -37 5 -79 11 -95 20 -50 23 -112
24 -453 0 -311 -1 -335 -18 -338 -10 -2 -34 13 -57 37 -23 23 -47 41 -54 41
-8 0 -16 7 -20 15 -3 8 -12 15 -19 15 -8 0 -22 9 -32 20 -10 11 -26 20 -35 20
-9 0 -25 9 -35 20 -10 11 -28 20 -39 20 -12 0 -29 9 -39 20 -9 11 -29 20 -46
20 -16 0 -34 6 -40 14 -7 8 -31 18 -54 21 -23 4 -51 14 -62 21 -11 8 -34 14
-53 14 -18 0 -60 9 -93 20 -50 17 -81 20 -191 18 l-130 -3 -18 -48 c-18 -46
-18 -48 1 -87 11 -22 28 -44 38 -50 11 -5 67 -10 124 -10 78 0 108 -4 116 -14
7 -8 41 -18 79 -21 37 -4 74 -13 82 -20 8 -7 33 -15 54 -18 22 -4 44 -13 48
-22 5 -8 19 -15 32 -15 13 0 35 -9 49 -20 14 -11 33 -20 42 -20 10 0 39 -18
65 -40 26 -22 51 -40 55 -40 13 0 96 -70 178 -151 l78 -76 -5 -529 c-5 -563
-6 -611 -21 -634 -5 -8 -12 -62 -15 -120 l-5 -105 -55 -27 c-53 -26 -60 -27
-240 -27 -147 -1 -191 -4 -215 -17 -31 -16 -62 -17 -600 -17 -490 0 -509 1
-540 17 -23 12 -63 16 -167 16 -86 0 -139 4 -143 11 -4 5 -18 14 -31 19 -13 5
-24 15 -24 22 0 7 -8 27 -17 43 -15 27 -17 93 -21 666 -3 462 -1 642 7 658 10
18 21 21 71 21 33 0 79 -6 102 -14 24 -8 77 -17 118 -21 41 -4 81 -12 88 -18
8 -6 40 -14 72 -18 33 -4 66 -14 75 -23 9 -9 31 -16 49 -16 19 0 43 -9 56 -20
13 -11 35 -20 49 -20 15 0 34 -9 44 -20 9 -11 26 -20 36 -20 11 0 24 -6 28
-14 5 -8 18 -18 29 -23 20 -7 80 -54 125 -95 11 -10 23 -18 28 -18 5 0 13 -9
16 -20 3 -11 11 -20 16 -20 5 0 14 -11 19 -25 5 -14 14 -25 19 -25 5 0 14 -13
20 -30 5 -16 14 -30 20 -30 5 0 13 -15 16 -32 4 -18 13 -40 20 -48 7 -8 16
-36 19 -62 5 -30 12 -48 20 -48 8 0 20 -9 28 -21 10 -15 24 -21 52 -21 25 0
44 7 57 21 11 12 24 21 29 21 16 0 12 144 -5 166 -8 10 -15 29 -15 40 0 12 -9
33 -20 47 -11 14 -20 32 -20 40 0 7 -9 22 -20 32 -11 10 -20 25 -20 32 0 24
-194 223 -217 223 -8 0 -16 7 -19 15 -4 8 -12 15 -19 15 -7 0 -24 9 -38 20
-14 11 -32 20 -41 20 -9 0 -24 9 -33 20 -10 11 -27 20 -39 20 -11 0 -29 9 -39
20 -12 13 -31 20 -54 20 -24 0 -42 7 -54 20 -11 13 -29 20 -53 20 -21 0 -47 8
-61 20 -18 14 -41 20 -78 20 -32 0 -57 5 -64 14 -6 8 -43 16 -88 19 -43 4 -96
13 -118 21 -22 9 -70 15 -106 16 -110 0 -103 -25 -90 351 7 178 15 417 19 531
4 113 11 210 15 215 5 4 180 9 390 11 222 2 387 8 393 13 7 6 167 9 399 9 213
-1 390 1 393 4 9 10 382 7 382 -3z"/>
</g>
</svg>
