<?xml version="1.0" standalone="no"?>
<!DOCTYPE svg PUBLIC "-//W3C//DTD SVG 20010904//EN"
 "http://www.w3.org/TR/2001/REC-SVG-20010904/DTD/svg10.dtd">
<svg version="1.0" xmlns="http://www.w3.org/2000/svg"
 width="3000.000000pt" height="3000.000000pt" viewBox="0 0 3000.000000 3000.000000"
 preserveAspectRatio="xMidYMid meet">

<g transform="translate(0.000000,3000.000000) scale(0.100000,-0.100000)"
fill="#000000" stroke="none">
<path d="M5030 18413 c-8 -2 -29 -11 -47 -19 -17 -8 -38 -14 -47 -14 -8 0 -42
-18 -75 -41 -64 -44 -141 -147 -141 -191 0 -12 -7 -32 -15 -42 -13 -17 -15
-249 -15 -1790 0 -1551 2 -1775 15 -1800 8 -15 15 -38 15 -51 0 -12 9 -34 20
-48 11 -14 20 -30 20 -35 0 -15 87 -100 109 -107 10 -3 25 -12 31 -20 7 -8 22
-15 34 -15 11 0 35 -8 51 -18 28 -16 131 -17 1715 -17 1584 0 1687 1 1715 17
17 10 40 18 51 18 12 0 33 9 47 20 14 11 28 20 32 20 13 0 95 89 95 102 0 8 9
21 20 31 11 9 20 29 20 44 1 16 7 39 15 53 22 38 22 3566 0 3594 -8 11 -15 33
-15 49 0 41 -107 187 -138 187 -5 0 -17 9 -27 20 -10 11 -30 20 -44 20 -14 0
-39 8 -56 18 -28 16 -132 17 -1700 19 -918 1 -1677 -1 -1685 -4z m2630 -702
c0 -5 11 -19 25 -32 21 -21 25 -33 25 -91 0 -37 5 -79 11 -95 20 -50 23 -112
24 -453 0 -311 -1 -335 -18 -338 -10 -2 -34 13 -57 37 -23 23 -47 41 -54 41
-8 0 -16 7 -20 15 -3 8 -12 15 -19 15 -8 0 -22 9 -32 20 -10 11 -26 20 -35 20
-9 0 -25 9 -35 20 -10 11 -28 20 -39 20 -12 0 -29 9 -39 20 -9 11 -29 20 -46
20 -16 0 -34 6 -40 14 -7 8 -31 18 -54 21 -23 4 -51 14 -62 21 -11 8 -34 14
-53 14 -18 0 -60 9 -93 20 -50 17 -81 20 -191 18 l-130 -3 -18 -48 c-18 -46
-18 -48 1 -87 11 -22 28 -44 38 -50 11 -5 67 -10 124 -10 78 0 108 -4 116 -14
7 -8 41 -18 79 -21 37 -4 74 -13 82 -20 8 -7 33 -15 54 -18 22 -4 44 -13 48
-22 5 -8 19 -15 32 -15 13 0 35 -9 49 -20 14 -11 33 -20 42 -20 10 0 39 -18
65 -40 26 -22 51 -40 55 -40 13 0 96 -70 178 -151 l78 -76 -5 -529 c-5 -563
-6 -611 -21 -634 -5 -8 -12 -62 -15 -120 l-5 -105 -55 -27 c-53 -26 -60 -27
-240 -27 -147 -1 -191 -4 -215 -17 -31 -16 -62 -17 -600 -17 -490 0 -509 1
-540 17 -23 12 -63 16 -167 16 -86 0 -139 4 -143 11 -4 5 -18 14 -31 19 -13 5
-24 15 -24 22 0 7 -8 27 -17 43 -15 27 -17 93 -21 666 -3 462 -1 642 7 658 10
18 21 21 71 21 33 0 79 -6 102 -14 24 -8 77 -17 118 -21 41 -4 81 -12 88 -18
8 -6 40 -14 72 -18 33 -4 66 -14 75 -23 9 -9 31 -16 49 -16 19 0 43 -9 56 -20
13 -11 35 -20 49 -20 15 0 34 -9 44 -20 9 -11 26 -20 36 -20 11 0 24 -6 28
-14 5 -8 18 -18 29 -23 20 -7 80 -54 125 -95 11 -10 23 -18 28 -18 5 0 13 -9
16 -20 3 -11 11 -20 16 -20 5 0 14 -11 19 -25 5 -14 14 -25 19 -25 5 0 14 -13
20 -30 5 -16 14 -30 20 -30 5 0 13 -15 16 -32 4 -18 13 -40 20 -48 7 -8 16
-36 19 -62 5 -30 12 -48 20 -48 8 0 20 -9 28 -21 10 -15 24 -21 52 -21 25 0
44 7 57 21 11 12 24 21 29 21 16 0 12 144 -5 166 -8 10 -15 29 -15 40 0 12 -9
33 -20 47 -11 14 -20 32 -20 40 0 7 -9 22 -20 32 -11 10 -20 25 -20 32 0 24
-194 223 -217 223 -8 0 -16 7 -19 15 -4 8 -12 15 -19 15 -7 0 -24 9 -38 20
-14 11 -32 20 -41 20 -9 0 -24 9 -33 20 -10 11 -27 20 -39 20 -11 0 -29 9 -39
20 -12 13 -31 20 -54 20 -24 0 -42 7 -54 20 -11 13 -29 20 -53 20 -21 0 -47 8
-61 20 -18 14 -41 20 -78 20 -32 0 -57 5 -64 14 -6 8 -43 16 -88 19 -43 4 -96
13 -118 21 -22 9 -70 15 -106 16 -110 0 -103 -25 -90 351 7 178 15 417 19 531
4 113 11 210 15 215 5 4 180 9 390 11 222 2 387 8 393 13 7 6 167 9 399 9 213
-1 390 1 393 4 9 10 382 7 382 -3z"/>
<path d="M12261 16955 c-135 -38 -208 -131 -219 -277 l-5 -68 -68 0 -69 0 0
-100 0 -100 70 0 70 0 0 -330 0 -330 125 0 125 0 0 330 0 330 110 0 110 0 0
100 0 100 -116 0 -117 0 7 47 c8 57 28 90 64 104 26 10 95 7 138 -6 16 -5 23
-2 26 12 3 10 17 49 32 86 l26 68 -47 21 c-62 27 -189 33 -262 13z"/>
<path d="M24370 16355 l0 -605 120 0 120 0 0 51 0 51 41 -36 c138 -118 398
-93 542 51 166 166 166 480 0 646 -144 144 -388 167 -540 51 l-33 -25 0 210 0
211 -125 0 -125 0 0 -605z m566 56 c48 -22 101 -82 114 -131 6 -19 10 -60 10
-90 0 -75 -14 -118 -52 -164 -100 -121 -303 -94 -369 49 -24 51 -25 170 -3
223 46 112 186 165 300 113z"/>
<path d="M10193 16889 c-117 -20 -230 -80 -283 -152 -74 -100 -80 -251 -14
-348 54 -79 124 -113 369 -175 194 -50 245 -80 245 -142 0 -76 -63 -114 -197
-120 -116 -5 -217 16 -321 68 -42 21 -78 38 -79 37 -6 -6 -83 -180 -83 -188 0
-15 142 -77 230 -100 122 -33 333 -33 436 -1 184 57 286 189 271 351 -9 100
-63 175 -162 225 -28 13 -128 45 -224 70 -241 64 -271 81 -271 154 0 43 50 95
105 111 98 27 246 7 360 -49 33 -16 63 -26 67 -22 3 4 23 48 42 97 36 88 36
90 17 106 -27 23 -168 67 -248 79 -80 11 -188 11 -260 -1z"/>
<path d="M17550 16320 l0 -570 130 0 130 0 0 160 0 161 122 -3 123 -3 106
-155 106 -155 143 -3 c115 -2 141 0 133 10 -29 38 -232 336 -235 345 -2 6 25
29 58 52 116 78 172 200 161 355 -13 192 -153 331 -369 366 -35 5 -186 10
-335 10 l-273 0 0 -570z m615 323 c55 -29 76 -55 91 -114 10 -38 11 -63 3
-100 -13 -59 -38 -93 -92 -122 -37 -19 -60 -22 -199 -25 l-158 -4 0 197 0 197
158 -4 c137 -3 162 -6 197 -25z"/>
<path d="M21960 16320 l0 -570 130 0 130 0 0 235 0 235 260 0 260 0 0 -235 0
-235 130 0 130 0 0 570 0 570 -130 0 -130 0 0 -225 0 -225 -260 0 -260 0 0
225 0 225 -130 0 -130 0 0 -570z"/>
<path d="M12660 16715 l0 -105 -70 0 -70 0 0 -100 0 -100 69 0 69 0 4 -232 c3
-192 7 -240 21 -270 23 -51 73 -106 116 -128 103 -52 281 -50 373 5 17 10 16
16 -12 89 -39 101 -36 97 -68 80 -63 -33 -152 -8 -171 47 -7 19 -11 108 -11
220 l0 189 110 0 110 0 0 100 0 100 -110 0 -110 0 0 105 0 105 -125 0 -125 0
0 -105z"/>
<path d="M11245 16630 c-226 -46 -369 -216 -369 -440 0 -238 152 -406 402
-443 216 -32 427 73 513 256 32 69 34 77 34 187 0 110 -2 118 -34 187 -39 85
-118 166 -200 208 -95 47 -239 66 -346 45z m193 -216 c89 -37 135 -113 135
-224 0 -87 -21 -138 -77 -187 -72 -64 -191 -71 -269 -17 -148 103 -122 367 43
433 38 15 126 13 168 -5z"/>
<path d="M15042 16629 c-107 -18 -242 -75 -242 -102 0 -7 19 -47 43 -89 l43
-77 29 20 c57 37 160 62 240 57 91 -6 132 -28 163 -88 40 -80 41 -80 -115 -80
-142 0 -244 -15 -307 -45 -157 -75 -181 -292 -45 -409 62 -53 125 -71 244 -71
89 0 107 4 158 28 31 16 66 40 77 54 l20 26 0 -52 0 -51 121 0 120 0 -3 308
c-3 290 -5 310 -26 363 -12 30 -38 74 -57 97 -84 97 -273 142 -463 111z m298
-555 c0 -84 -61 -148 -153 -160 -62 -9 -111 2 -147 32 -24 20 -30 34 -30 64 0
56 8 70 54 91 32 15 66 19 159 19 l117 0 0 -46z"/>
<path d="M16245 16626 c-64 -16 -112 -41 -152 -79 l-33 -31 0 57 0 57 -120 0
-120 0 0 -440 0 -440 125 0 125 0 0 231 c0 270 6 304 64 364 46 48 92 65 174
65 l52 0 0 115 0 115 -32 -1 c-18 0 -55 -6 -83 -13z"/>
<path d="M16801 16629 c-64 -12 -162 -61 -211 -105 -99 -90 -142 -191 -142
-334 0 -191 81 -319 254 -400 179 -84 454 -54 565 62 l32 33 -66 72 -65 73
-33 -26 c-66 -50 -197 -69 -286 -42 -64 19 -149 104 -149 148 0 7 107 10 331
10 l332 0 -5 99 c-4 87 -9 108 -40 173 -89 186 -294 281 -517 237z m220 -205
c43 -25 87 -82 95 -122 l7 -32 -216 0 -216 0 9 29 c17 60 60 108 120 136 47
21 156 15 201 -11z"/>
<path d="M19021 16629 c-64 -12 -162 -61 -211 -105 -99 -90 -142 -191 -142
-334 0 -191 81 -319 254 -400 179 -84 454 -54 565 62 l32 33 -66 72 -65 73
-33 -26 c-66 -50 -197 -69 -286 -42 -64 19 -149 104 -149 148 0 7 107 10 331
10 l332 0 -5 99 c-4 87 -9 108 -40 173 -89 186 -294 281 -517 237z m220 -205
c43 -25 87 -82 95 -122 l7 -32 -216 0 -216 0 9 29 c17 60 60 108 120 136 47
21 156 15 201 -11z"/>
<path d="M20150 16624 c-60 -16 -90 -33 -132 -72 l-28 -26 0 52 0 52 -120 0
-120 0 0 -600 0 -600 125 0 125 0 0 206 0 205 33 -25 c152 -116 396 -93 540
51 165 165 166 480 2 644 -110 110 -274 153 -425 113z m166 -213 c48 -22 101
-82 114 -131 6 -19 10 -60 10 -90 0 -75 -14 -118 -52 -164 -100 -121 -303 -94
-369 49 -24 51 -25 170 -3 223 46 112 186 165 300 113z"/>
<path d="M21175 16630 c-226 -46 -369 -216 -369 -440 0 -238 152 -406 402
-443 216 -32 427 73 513 256 32 69 34 77 34 187 0 110 -2 118 -34 187 -39 85
-118 166 -200 208 -95 47 -239 66 -346 45z m193 -216 c89 -37 135 -113 135
-224 0 -87 -21 -138 -77 -187 -72 -64 -191 -71 -269 -17 -148 103 -122 367 43
433 38 15 126 13 168 -5z"/>
<path d="M13236 16563 c14 -38 85 -234 158 -438 l132 -370 123 0 123 0 98 263
c54 145 100 265 102 267 2 3 40 -93 83 -213 43 -119 86 -241 97 -270 l20 -53
121 3 122 3 157 435 156 435 -105 3 c-59 1 -110 -1 -114 -5 -4 -4 -53 -138
-110 -297 -98 -276 -104 -288 -115 -260 -7 16 -54 149 -106 297 l-93 267 -106
0 c-76 0 -108 -4 -111 -12 -3 -7 -49 -137 -103 -288 -54 -151 -101 -278 -105
-283 -3 -4 -44 102 -90 235 -46 134 -92 267 -102 296 l-19 52 -119 0 -119 0
25 -67z"/>
<path d="M23242 16328 c5 -336 10 -370 71 -450 39 -51 113 -103 170 -120 23
-7 80 -12 127 -13 101 0 168 20 234 71 l46 35 0 -51 0 -50 120 0 120 0 0 440
0 440 -124 0 -124 0 -3 -252 c-4 -252 -4 -253 -31 -308 -40 -80 -81 -105 -174
-105 -58 0 -78 4 -100 21 -74 55 -84 103 -84 417 l0 227 -126 0 -126 0 4 -302z"/>
</g>
</svg>
