<svg width="26" height="21" viewBox="0 0 26 21" fill="none" xmlns="http://www.w3.org/2000/svg">
<path d="M12.9675 17.0953L18.2 11.8125L12.9675 6.52969L11.1475 8.36719L13.26 10.5H7.8V13.125H13.26L11.1475 15.2578L12.9675 17.0953ZM2.6 21C1.885 21 1.27313 20.7432 0.7644 20.2296C0.2548 19.7151 0 19.0969 0 18.375V2.625C0 1.90312 0.2548 1.28537 0.7644 0.77175C1.27313 0.25725 1.885 0 2.6 0H10.4L13 2.625H23.4C24.115 2.625 24.7273 2.88225 25.2369 3.39675C25.7456 3.91037 26 4.52812 26 5.25V18.375C26 19.0969 25.7456 19.7151 25.2369 20.2296C24.7273 20.7432 24.115 21 23.4 21H2.6Z" fill="white"/>
</svg>
