<svg width="26" height="19" viewBox="0 0 26 19" fill="none" xmlns="http://www.w3.org/2000/svg">
<path d="M0 18.9091V15.6C0 14.9303 0.172545 14.3146 0.517636 13.7528C0.861939 13.1918 1.3197 12.7636 1.89091 12.4682C3.11212 11.8576 4.35303 11.3994 5.61364 11.0937C6.87424 10.7888 8.15455 10.6364 9.45455 10.6364C10.7545 10.6364 12.0348 10.7888 13.2955 11.0937C14.5561 11.3994 15.797 11.8576 17.0182 12.4682C17.5894 12.7636 18.0472 13.1918 18.3915 13.7528C18.7365 14.3146 18.9091 14.9303 18.9091 15.6V18.9091H0ZM21.2727 18.9091V15.3636C21.2727 14.497 21.0316 13.6646 20.5495 12.8665C20.0665 12.0691 19.3818 11.3848 18.4955 10.8136C19.5 10.9318 20.4455 11.1335 21.3318 11.4187C22.2182 11.7047 23.0455 12.0545 23.8136 12.4682C24.5227 12.8621 25.0644 13.3002 25.4386 13.7824C25.8129 14.2653 26 14.7924 26 15.3636V18.9091H21.2727ZM9.45455 9.45455C8.15455 9.45455 7.04167 8.99167 6.11591 8.06591C5.19015 7.14015 4.72727 6.02727 4.72727 4.72727C4.72727 3.42727 5.19015 2.31439 6.11591 1.38864C7.04167 0.462879 8.15455 0 9.45455 0C10.7545 0 11.8674 0.462879 12.7932 1.38864C13.7189 2.31439 14.1818 3.42727 14.1818 4.72727C14.1818 6.02727 13.7189 7.14015 12.7932 8.06591C11.8674 8.99167 10.7545 9.45455 9.45455 9.45455ZM21.2727 4.72727C21.2727 6.02727 20.8099 7.14015 19.8841 8.06591C18.9583 8.99167 17.8455 9.45455 16.5455 9.45455C16.3288 9.45455 16.053 9.43012 15.7182 9.38127C15.3833 9.33164 15.1076 9.27727 14.8909 9.21818C15.4227 8.58788 15.8312 7.88864 16.1165 7.12045C16.4025 6.35227 16.5455 5.55455 16.5455 4.72727C16.5455 3.9 16.4025 3.10227 16.1165 2.33409C15.8312 1.56591 15.4227 0.866666 14.8909 0.236363C15.1667 0.137879 15.4424 0.0736669 15.7182 0.0437275C15.9939 0.014576 16.2697 0 16.5455 0C17.8455 0 18.9583 0.462879 19.8841 1.38864C20.8099 2.31439 21.2727 3.42727 21.2727 4.72727Z" fill="white"/>
</svg>
