<svg width="13" height="13" viewBox="0 0 13 13" fill="none" xmlns="http://www.w3.org/2000/svg">
<rect width="13" height="13" fill="white"/>
<path d="M4.875 6.5V7.58333M3.25 6.5V8.125M6.5 6.5V8.125M9.75 6.5V8.125M8.125 6.5V7.58333M1.625 1.625V3.79167M1.625 2.70833H11.375M11.375 1.625V3.79167M10.7656 6.5C11.102 6.5 11.375 6.77733 11.375 7.11913V10.2142C11.375 10.556 11.102 10.8333 10.7656 10.8333H2.16667C2.02301 10.8333 1.88523 10.7763 1.78365 10.6747C1.68207 10.5731 1.625 10.4353 1.625 10.2917V7.11913C1.625 6.77733 1.898 6.5 2.23438 6.5H10.7656Z" stroke="#6F737A" stroke-width="2" stroke-linecap="round" stroke-linejoin="round"/>
</svg>
